<svg xmlns="http://www.w3.org/2000/svg" viewBox="0 0 1323.52 1865.41"><defs><style>.b7413484-13a9-4b6c-8eeb-8fdcdfeb203b,.e93973bd-f050-4b00-a683-3a9c7b8f97ba{fill:none;stroke:#231f20;stroke-miterlimit:10;}.b7413484-13a9-4b6c-8eeb-8fdcdfeb203b{stroke-width:15px;}.a1a3696c-cf44-4d49-8673-e4ecf9ab4055{font-size:216.48px;fill:#231f20;font-family:MmtsdrLaTkelmeni, Mmtsdr La Tkelmeni;}.e93973bd-f050-4b00-a683-3a9c7b8f97ba{stroke-width:10px;}</style></defs><g id="a5b89306-cbb6-40e1-823c-aa39bcb4cb6f" data-name="Layer 2"><path class="b7413484-13a9-4b6c-8eeb-8fdcdfeb203b" d="M1412.19,500.12A411.52,411.52,0,0,1,1390,634c-15.39,44.86-41.26,85.31-74.38,119.26a431.72,431.72,0,0,0-105.87,419.49,7,7,0,0,1-6.73,9H795.06a7,7,0,0,1-6.72-9A431,431,0,0,0,683.89,753.42c-32-33.09-57.19-72.3-72.56-115.72a411.78,411.78,0,0,1-23.52-139.37c1-231.14,190.45-415.44,421.54-410.3C1232.68,93,1412.19,275.59,1412.19,500.12Z" transform="translate(-338.24 -80.43)"/><path class="b7413484-13a9-4b6c-8eeb-8fdcdfeb203b" d="M1209.85,1183.69v311.25a54.23,54.23,0,0,1-54.23,54.23H844.38a54.23,54.23,0,0,1-54.23-54.23V1183.69c0-.67,0-1.34,0-2h419.62C1209.84,1182.35,1209.85,1183,1209.85,1183.69Z" transform="translate(-338.24 -80.43)"/><path class="b7413484-13a9-4b6c-8eeb-8fdcdfeb203b" d="M1108.29,1556.24v24a67.06,67.06,0,0,1-67.06,67.06H958.77a67.06,67.06,0,0,1-67.06-67.06v-24a66,66,0,0,1,.37-7.07h215.84A66,66,0,0,1,1108.29,1556.24Z" transform="translate(-338.24 -80.43)"/><path class="b7413484-13a9-4b6c-8eeb-8fdcdfeb203b" d="M881.78,1251.07c109.22-.07,219.22-.07,328.07,0" transform="translate(-338.24 -80.43)"/><path class="b7413484-13a9-4b6c-8eeb-8fdcdfeb203b" d="M790.15,1251.07c25.85-.07,51.85-.07,77.56,0" transform="translate(-338.24 -80.43)"/><path class="b7413484-13a9-4b6c-8eeb-8fdcdfeb203b" d="M1120.28,1321.07c29.72-.07,59.72-.07,89.57,0" transform="translate(-338.24 -80.43)"/><path class="b7413484-13a9-4b6c-8eeb-8fdcdfeb203b" d="M790.15,1321.07c105.85-.07,210.85-.07,316.65,0" transform="translate(-338.24 -80.43)"/><path class="b7413484-13a9-4b6c-8eeb-8fdcdfeb203b" d="M948.51,1391.07q131.23-.1,261.34,0" transform="translate(-338.24 -80.43)"/><path class="b7413484-13a9-4b6c-8eeb-8fdcdfeb203b" d="M790.15,1391.07q71.77-.1,144.18,0" transform="translate(-338.24 -80.43)"/><path class="b7413484-13a9-4b6c-8eeb-8fdcdfeb203b" d="M1074,1461.07c45-.07,91-.07,135.88,0" transform="translate(-338.24 -80.43)"/><path class="b7413484-13a9-4b6c-8eeb-8fdcdfeb203b" d="M875.37,1461c61.63,0,122.63,0,184.26,0" transform="translate(-338.24 -80.43)"/><path class="b7413484-13a9-4b6c-8eeb-8fdcdfeb203b" d="M790.15,1461.07l70.55,0" transform="translate(-338.24 -80.43)"/><text class="a1a3696c-cf44-4d49-8673-e4ecf9ab4055" transform="translate(0 1774.18)">Light of Books</text></g><g id="aff5368e-5adc-4bd7-9e15-f086c9b3b9be" data-name="Layer 4"><path class="e93973bd-f050-4b00-a683-3a9c7b8f97ba" d="M1218.63,316.05c-102.66,0-189,39.84-213.76,71.38V698.16c24.79-31.53,111.1-71.37,213.76-71.37A619.69,619.69,0,0,1,1307,632.9V322.17A618.17,618.17,0,0,0,1218.63,316.05Zm5.81,157.58a339.54,339.54,0,0,0-41.08,2.06c-48.2,5.48-99,23.22-128.7,63.73-3.13,4.26-10.32.12-7.16-4.18a143.71,143.71,0,0,1,30.5-30.56c41.38-30.66,96-39.76,146.44-39.33C1229.78,465.39,1229.78,473.68,1224.44,473.63Zm28.43-120.12a230,230,0,0,0-48-3,298.79,298.79,0,0,0-81.47,14.6c-22.72,7.33-47.21,16.5-63.77,34.46-3.62,3.93-9.47-1.95-5.86-5.86,9.79-10.62,22.41-18.25,35.41-24.3A297.17,297.17,0,0,1,1166,346.14c29.42-4.82,59.66-5.81,89.09-.62C1260.32,346.45,1258.08,354.43,1252.87,353.51Z" transform="translate(-338.24 -80.43)"/><path class="e93973bd-f050-4b00-a683-3a9c7b8f97ba" d="M781.37,316.05A618.17,618.17,0,0,0,693,322.17V632.9a619.69,619.69,0,0,1,88.38-6.11c102.66,0,189,39.84,213.76,71.37V387.43C970.34,355.89,884,316.05,781.37,316.05ZM958.44,443.52c-9.68-9.1-21.55-15.47-34-20.06-22.62-8.37-46.76-11.68-70.57-14.62a414,414,0,0,0-93.55-.53c-5.31.55-5.25-7.74,0-8.29a427.52,427.52,0,0,1,56.8-2.18,455.84,455.84,0,0,1,81,9.58c23.79,5.06,48.11,13.28,66.16,30.25C968.2,441.33,962.32,447.18,958.44,443.52Zm6.49-32a185,185,0,0,0-37.84-21.33c-24.47-10.38-50.7-16.63-77-20.37-13.15-1.87-26.4-2.93-39.66-3.61-15.63-.81-31.35-.75-46.5,3.64-5.14,1.49-7.31-6.51-2.2-8,17.62-5.11,36-4.73,54.12-3.63,52.81,3.22,109.79,14,153.22,46.13C973.36,407.49,969.22,414.68,964.93,411.51Z" transform="translate(-338.24 -80.43)"/><path class="e93973bd-f050-4b00-a683-3a9c7b8f97ba" d="M1298.12,655v24.86a584.47,584.47,0,0,0-85.8-6.11c-99.67,0-183.46,39.84-207.52,71.38V720.22c24.06-31.54,107.85-71.38,207.52-71.38A584.47,584.47,0,0,1,1298.12,655Z" transform="translate(-338.24 -80.43)"/><path class="e93973bd-f050-4b00-a683-3a9c7b8f97ba" d="M995.2,720.22v24.86c-24.06-31.54-107.85-71.38-207.52-71.38a584.47,584.47,0,0,0-85.8,6.11V655a584.47,584.47,0,0,1,85.8-6.11C887.35,648.84,971.14,688.68,995.2,720.22Z" transform="translate(-338.24 -80.43)"/></g></svg>